<svg width="85" height="85" viewBox="0 0 85 85" fill="none" xmlns="http://www.w3.org/2000/svg">
<ellipse cx="42.1554" cy="42.5" rx="42.1554" ry="42.5" fill="#FBEDEC"/>
<path d="M37.0302 41.0227C36.8552 41.0052 36.6452 41.0052 36.4527 41.0227C32.2877 40.8827 28.9802 37.4702 28.9802 33.2702C28.9802 28.9827 32.4452 25.5002 36.7502 25.5002C41.0377 25.5002 44.5202 28.9827 44.5202 33.2702C44.5027 37.4702 41.1952 40.8827 37.0302 41.0227Z" stroke="#00AC4F" stroke-width="2.625" stroke-linecap="round" stroke-linejoin="round"/>
<path d="M49.7172 28.9998C53.1122 28.9998 55.8422 31.7473 55.8422 35.1248C55.8422 38.4323 53.2172 41.1273 49.9447 41.2498C49.8047 41.2323 49.6472 41.2323 49.4897 41.2498" stroke="#00AC4F" stroke-width="2.625" stroke-linecap="round" stroke-linejoin="round"/>
<path d="M28.2805 47.4798C24.0455 50.3148 24.0455 54.9348 28.2805 57.7523C33.093 60.9723 40.9855 60.9723 45.798 57.7523C50.033 54.9173 50.033 50.2973 45.798 47.4798C41.003 44.2773 33.1105 44.2773 28.2805 47.4798Z" stroke="#00AC4F" stroke-width="2.625" stroke-linecap="round" stroke-linejoin="round"/>
<path d="M53.0947 57.0002C54.3547 56.7377 55.5447 56.2302 56.5247 55.4777C59.2547 53.4302 59.2547 50.0527 56.5247 48.0052C55.5622 47.2702 54.3897 46.7802 53.1472 46.5002" stroke="#00AC4F" stroke-width="2.625" stroke-linecap="round" stroke-linejoin="round"/>
</svg>
