<svg width="85" height="85" viewBox="0 0 85 85" fill="none" xmlns="http://www.w3.org/2000/svg">
<ellipse cx="42.1554" cy="42.5" rx="42.1554" ry="42.5" fill="#FBEDEC"/>
<path d="M46.0666 54.7501L48.5999 57.2835L53.6666 52.2168" stroke="#00AC4F" stroke-width="2.5" stroke-linecap="round" stroke-linejoin="round"/>
<path d="M42.2669 41.1171C42.1003 41.1004 41.9003 41.1004 41.7169 41.1171C37.7503 40.9837 34.6003 37.7337 34.6003 33.7337C34.5836 29.6504 37.9003 26.3337 41.9836 26.3337C46.0669 26.3337 49.3836 29.6504 49.3836 33.7337C49.3836 37.7337 46.2169 40.9837 42.2669 41.1171Z" stroke="#00AC4F" stroke-width="2.5" stroke-linecap="round" stroke-linejoin="round"/>
<path d="M41.9832 59.3499C38.9498 59.3499 35.9332 58.5832 33.6332 57.0499C29.5998 54.3499 29.5998 49.9499 33.6332 47.2666C38.2165 44.1999 45.7332 44.1999 50.3165 47.2666" stroke="#00AC4F" stroke-width="2.5" stroke-linecap="round" stroke-linejoin="round"/>
<path d="M50 65.1308C54.4183 65.1308 58 61.5198 58 57.0654C58 52.611 54.4183 49 50 49C45.5817 49 42 52.611 42 57.0654C42 61.5198 45.5817 65.1308 50 65.1308Z" fill="#FF6966"/>
<path d="M49.1643 60.1946C48.9255 60.1946 48.7165 60.1043 48.5374 59.9237L46.0001 57.3656C45.6419 57.0045 45.6419 56.4327 46.0001 56.1017C46.3583 55.7405 46.9255 55.7405 47.2538 56.1017L49.1643 58.0277L52.7464 54.4164C53.1046 54.0552 53.6718 54.0552 54.0001 54.4164C54.3583 54.7775 54.3583 55.3493 54.0001 55.6803L49.7912 59.9237C49.612 60.1043 49.3732 60.1946 49.1643 60.1946Z" fill="white"/>
</svg>
