<svg width="85" height="85" viewBox="0 0 85 85" fill="none" xmlns="http://www.w3.org/2000/svg">
<ellipse cx="42.1554" cy="42.5" rx="42.1554" ry="42.5" fill="#FBEDEC"/>
<path d="M41.0302 42.0227C40.8552 42.0052 40.6452 42.0052 40.4527 42.0227C36.2877 41.8827 32.9802 38.4702 32.9802 34.2702C32.9802 29.9827 36.4452 26.5002 40.7502 26.5002C45.0377 26.5002 48.5202 29.9827 48.5202 34.2702C48.5027 38.4702 45.1952 41.8827 41.0302 42.0227Z" stroke="#7A5AF8" stroke-width="2.625" stroke-linecap="round" stroke-linejoin="round"/>
<path d="M53.7172 29.9998C57.1122 29.9998 59.8422 32.7473 59.8422 36.1248C59.8422 39.4323 57.2172 42.1273 53.9447 42.2498C53.8047 42.2323 53.6472 42.2323 53.4897 42.2498" stroke="#7A5AF8" stroke-width="2.625" stroke-linecap="round" stroke-linejoin="round"/>
<path d="M32.2805 48.4798C28.0455 51.3148 28.0455 55.9348 32.2805 58.7523C37.093 61.9723 44.9855 61.9723 49.798 58.7523C54.033 55.9173 54.033 51.2973 49.798 48.4798C45.003 45.2773 37.1105 45.2773 32.2805 48.4798Z" stroke="#7A5AF8" stroke-width="2.625" stroke-linecap="round" stroke-linejoin="round"/>
<path d="M57.0947 58.0002C58.3547 57.7377 59.5447 57.2302 60.5247 56.4777C63.2547 54.4302 63.2547 51.0527 60.5247 49.0052C59.5622 48.2702 58.3897 47.7802 57.1472 47.5002" stroke="#7A5AF8" stroke-width="2.625" stroke-linecap="round" stroke-linejoin="round"/>
</svg>
