<svg width="85" height="85" viewBox="0 0 85 85" fill="none" xmlns="http://www.w3.org/2000/svg">
<ellipse cx="42.3987" cy="42.5" rx="42.1554" ry="42.5" fill="#FBEDEC"/>
<path d="M37.2735 37.0227C37.0985 37.0052 36.8885 37.0052 36.696 37.0227C32.531 36.8827 29.2235 33.4702 29.2235 29.2702C29.2235 24.9827 32.6885 21.5002 36.9935 21.5002C41.281 21.5002 44.7635 24.9827 44.7635 29.2702C44.746 33.4702 41.4385 36.8827 37.2735 37.0227Z" stroke="#07143B" stroke-width="2.625" stroke-linecap="round" stroke-linejoin="round"/>
<path d="M49.9604 24.9998C53.3554 24.9998 56.0854 27.7473 56.0854 31.1248C56.0854 34.4323 53.4604 37.1273 50.1879 37.2498C50.0479 37.2323 49.8904 37.2323 49.7329 37.2498" stroke="#07143B" stroke-width="2.625" stroke-linecap="round" stroke-linejoin="round"/>
<path d="M28.5238 43.4798C24.2888 46.3148 24.2888 50.9348 28.5238 53.7523C33.3363 56.9723 41.2288 56.9723 46.0413 53.7523C50.2763 50.9173 50.2763 46.2973 46.0413 43.4798C41.2463 40.2773 33.3538 40.2773 28.5238 43.4798Z" stroke="#07143B" stroke-width="2.625" stroke-linecap="round" stroke-linejoin="round"/>
<path d="M53.338 53.0002C54.598 52.7377 55.788 52.2302 56.768 51.4777C59.498 49.4302 59.498 46.0527 56.768 44.0052C55.8055 43.2702 54.633 42.7802 53.3905 42.5002" stroke="#07143B" stroke-width="2.625" stroke-linecap="round" stroke-linejoin="round"/>
</svg>
