<svg width="20" height="20" viewBox="0 0 20 20" fill="none" xmlns="http://www.w3.org/2000/svg">
<path d="M16.6665 16.0503H9.10819C8.73319 16.0503 8.42485 15.7419 8.42485 15.3669C8.42485 14.9919 8.73319 14.6836 9.10819 14.6836H16.6665C17.0415 14.6836 17.3499 14.9919 17.3499 15.3669C17.3499 15.7503 17.0415 16.0503 16.6665 16.0503Z" fill="#7E92A2"/>
<path d="M16.6665 10.8086H9.10819C8.73319 10.8086 8.42485 10.5003 8.42485 10.1253C8.42485 9.75026 8.73319 9.44193 9.10819 9.44193H16.6665C17.0415 9.44193 17.3499 9.75026 17.3499 10.1253C17.3499 10.5003 17.0415 10.8086 16.6665 10.8086Z" fill="#7E92A2"/>
<path d="M16.6665 5.55859H9.10819C8.73319 5.55859 8.42485 5.25026 8.42485 4.87526C8.42485 4.50026 8.73319 4.19193 9.10819 4.19193H16.6665C17.0415 4.19193 17.3499 4.50026 17.3499 4.87526C17.3499 5.25026 17.0415 5.55859 16.6665 5.55859Z" fill="#7E92A2"/>
<path d="M4.09152 6.69193C3.90819 6.69193 3.73319 6.61693 3.60819 6.49193L2.84985 5.73359C2.58319 5.46693 2.58319 5.03359 2.84985 4.76693C3.11652 4.50026 3.54985 4.50026 3.81652 4.76693L4.09152 5.04193L5.87485 3.25859C6.14152 2.99193 6.57485 2.99193 6.84152 3.25859C7.10819 3.52526 7.10819 3.95859 6.84152 4.22526L4.57485 6.49193C4.44152 6.61693 4.27485 6.69193 4.09152 6.69193Z" fill="#7E92A2"/>
<path d="M4.09152 11.9419C3.91652 11.9419 3.74152 11.8753 3.60819 11.7419L2.84985 10.9836C2.58319 10.7169 2.58319 10.2836 2.84985 10.0169C3.11652 9.75026 3.54985 9.75026 3.81652 10.0169L4.09152 10.2919L5.87485 8.50859C6.14152 8.24193 6.57485 8.24193 6.84152 8.50859C7.10819 8.77526 7.10819 9.20859 6.84152 9.47526L4.57485 11.7419C4.44152 11.8753 4.26652 11.9419 4.09152 11.9419Z" fill="#7E92A2"/>
<path d="M4.09152 16.9419C3.91652 16.9419 3.74152 16.8753 3.60819 16.7419L2.84985 15.9836C2.58319 15.7169 2.58319 15.2836 2.84985 15.0169C3.11652 14.7503 3.54985 14.7503 3.81652 15.0169L4.09152 15.2919L5.87485 13.5086C6.14152 13.2419 6.57485 13.2419 6.84152 13.5086C7.10819 13.7753 7.10819 14.2086 6.84152 14.4753L4.57485 16.7419C4.44152 16.8753 4.26652 16.9419 4.09152 16.9419Z" fill="#7E92A2"/>
</svg>
