<svg width="20" height="20" viewBox="0 0 20 20" fill="none" xmlns="http://www.w3.org/2000/svg">
<path d="M16.475 11.4584H13.1083C11.4333 11.4584 10.625 10.6834 10.625 9.08341V3.41675C10.625 1.81675 11.4417 1.04175 13.1083 1.04175H16.475C18.15 1.04175 18.9583 1.81675 18.9583 3.41675V9.08341C18.9583 10.6834 18.1417 11.4584 16.475 11.4584ZM13.1083 2.29175C12.05 2.29175 11.875 2.57508 11.875 3.41675V9.08341C11.875 9.92508 12.05 10.2084 13.1083 10.2084H16.475C17.5333 10.2084 17.7083 9.92508 17.7083 9.08341V3.41675C17.7083 2.57508 17.5333 2.29175 16.475 2.29175H13.1083V2.29175Z" fill="#7E92A2"/>
<path d="M13.1084 13.2083H16.4746C17.2445 13.2083 17.717 13.3876 17.999 13.6575C18.2766 13.9232 18.458 14.3619 18.458 15.0833V16.5833C18.458 17.3035 18.275 17.7428 17.9961 18.009C17.7126 18.2795 17.2396 18.4583 16.4746 18.4583H13.1084C12.3385 18.4583 11.866 18.2789 11.584 18.009C11.3065 17.7433 11.125 17.3045 11.125 16.5833V15.0833L11.1338 14.8264C11.1726 14.256 11.3428 13.8905 11.5869 13.6575C11.8704 13.3869 12.3433 13.2083 13.1084 13.2083ZM13.1084 13.4583C12.5807 13.4583 12.0756 13.5174 11.7412 13.8518C11.4032 14.1899 11.375 14.6762 11.375 15.0833V16.5833C11.375 16.9903 11.4032 17.4766 11.7412 17.8147C12.0756 18.1491 12.5807 18.2083 13.1084 18.2083H16.4746C17.0023 18.2083 17.5074 18.1491 17.8418 17.8147C18.1799 17.4766 18.208 16.9903 18.208 16.5833V15.0833C18.208 14.6762 18.1799 14.1899 17.8418 13.8518C17.5074 13.5175 17.0023 13.4583 16.4746 13.4583H13.1084Z" stroke="#7E92A2"/>
<path d="M6.89175 18.9584H3.52508C1.85008 18.9584 1.04175 18.1834 1.04175 16.5834V10.9167C1.04175 9.31675 1.85841 8.54175 3.52508 8.54175H6.89175C8.56675 8.54175 9.37508 9.31675 9.37508 10.9167V16.5834C9.37508 18.1834 8.55841 18.9584 6.89175 18.9584ZM3.52508 9.79175C2.46675 9.79175 2.29175 10.0751 2.29175 10.9167V16.5834C2.29175 17.4251 2.46675 17.7084 3.52508 17.7084H6.89175C7.95008 17.7084 8.12508 17.4251 8.12508 16.5834V10.9167C8.12508 10.0751 7.95008 9.79175 6.89175 9.79175H3.52508V9.79175Z" fill="#7E92A2"/>
<path d="M6.89175 7.29175H3.52508C1.85008 7.29175 1.04175 6.51675 1.04175 4.91675V3.41675C1.04175 1.81675 1.85841 1.04175 3.52508 1.04175H6.89175C8.56675 1.04175 9.37508 1.81675 9.37508 3.41675V4.91675C9.37508 6.51675 8.55841 7.29175 6.89175 7.29175ZM3.52508 2.29175C2.46675 2.29175 2.29175 2.57508 2.29175 3.41675V4.91675C2.29175 5.75841 2.46675 6.04175 3.52508 6.04175H6.89175C7.95008 6.04175 8.12508 5.75841 8.12508 4.91675V3.41675C8.12508 2.57508 7.95008 2.29175 6.89175 2.29175H3.52508V2.29175Z" fill="#7E92A2"/>
</svg>
