<svg width="20" height="20" viewBox="0 0 20 20" fill="none" xmlns="http://www.w3.org/2000/svg">
<path d="M14.1667 2.025H5.83341C3.33341 2.025 1.66675 3.69167 1.66675 6.19167V11.1917C1.66675 13.6917 3.33341 15.3583 5.83341 15.3583H9.16675L12.8751 17.825C13.4251 18.1917 14.1667 17.8 14.1667 17.1333V15.3583C16.6667 15.3583 18.3334 13.6917 18.3334 11.1917V6.19167C18.3334 3.69167 16.6667 2.025 14.1667 2.025ZM12.9167 9.375H7.08341C6.74175 9.375 6.45841 9.09167 6.45841 8.75C6.45841 8.40833 6.74175 8.125 7.08341 8.125H12.9167C13.2584 8.125 13.5417 8.40833 13.5417 8.75C13.5417 9.09167 13.2584 9.375 12.9167 9.375Z" fill="white"/>
</svg>
