<svg width="16" height="19" viewBox="0 0 16 19" fill="none" xmlns="http://www.w3.org/2000/svg">
<path d="M8.01721 17.1082C6.07554 17.1082 4.13388 16.7998 2.29221 16.1832C1.59221 15.9415 1.05888 15.4498 0.825542 14.8082C0.583875 14.1665 0.667209 13.4582 1.05054 12.8248L2.00888 11.2332C2.20888 10.8998 2.39221 10.2332 2.39221 9.84149V7.43315C2.39221 4.33315 4.91721 1.80815 8.01721 1.80815C11.1172 1.80815 13.6422 4.33315 13.6422 7.43315V9.84149C13.6422 10.2248 13.8255 10.8998 14.0255 11.2415L14.9755 12.8248C15.3339 13.4248 15.4005 14.1498 15.1589 14.8082C14.9172 15.4665 14.3922 15.9665 13.7339 16.1832C11.9005 16.7998 9.95888 17.1082 8.01721 17.1082ZM8.01721 3.05815C5.60888 3.05815 3.64221 5.01649 3.64221 7.43315V9.84149C3.64221 10.4498 3.39221 11.3498 3.08388 11.8748L2.12554 13.4665C1.94221 13.7748 1.89221 14.0998 2.00054 14.3748C2.10054 14.6582 2.35054 14.8748 2.69221 14.9915C6.17554 16.1582 9.86721 16.1582 13.3505 14.9915C13.6505 14.8915 13.8839 14.6665 13.9922 14.3665C14.1005 14.0665 14.0755 13.7415 13.9089 13.4665L12.9505 11.8748C12.6339 11.3332 12.3922 10.4415 12.3922 9.83315V7.43315C12.3922 5.01649 10.4339 3.05815 8.01721 3.05815Z" fill="#7E92A2"/>
<path d="M9.56721 3.28315C9.50888 3.28315 9.45054 3.27482 9.39221 3.25815C9.15054 3.19149 8.91721 3.14149 8.69221 3.10815C7.98388 3.01649 7.30054 3.06649 6.65888 3.25815C6.42554 3.33315 6.17554 3.25815 6.01721 3.08315C5.85887 2.90815 5.80887 2.65815 5.90054 2.43315C6.24221 1.55815 7.07554 0.983154 8.02554 0.983154C8.97554 0.983154 9.80888 1.54982 10.1505 2.43315C10.2339 2.65815 10.1922 2.90815 10.0339 3.08315C9.90887 3.21649 9.73388 3.28315 9.56721 3.28315Z" fill="#7E92A2"/>
<path d="M8.01721 19.0082C7.19221 19.0082 6.39221 18.6748 5.80888 18.0915C5.22554 17.5082 4.89221 16.7082 4.89221 15.8832H6.14221C6.14221 16.3748 6.34221 16.8582 6.69221 17.2082C7.04221 17.5582 7.52554 17.7582 8.01721 17.7582C9.05054 17.7582 9.89221 16.9165 9.89221 15.8832H11.1422C11.1422 17.6082 9.74221 19.0082 8.01721 19.0082Z" fill="#7E92A2"/>
</svg>
