<svg width="20" height="20" viewBox="0 0 20 20" fill="none" xmlns="http://www.w3.org/2000/svg">
<path d="M7.51032 11.1296C8.96526 11.1296 10.3922 11.4989 11.4556 12.2078C12.3427 12.7992 12.8007 13.5483 12.8599 14.3171L12.8668 14.4705C12.8654 15.2945 12.4031 16.1027 11.4547 16.7429C10.3871 17.4597 8.95586 17.8337 7.49958 17.8337C6.04345 17.8337 4.61292 17.4596 3.54548 16.7429L3.5445 16.7419L3.37165 16.6218C2.53906 16.0086 2.13337 15.2488 2.13337 14.4832C2.13346 13.6664 2.59459 12.8482 3.55036 12.2078L3.55133 12.2087C4.62379 11.4989 6.05553 11.1297 7.51032 11.1296ZM13.3238 10.9187C14.6496 10.8965 16.0098 11.2819 16.9273 12.0222L16.9283 12.0232C17.6022 12.5653 17.8828 13.189 17.8277 13.7781H17.8267V13.7839C17.7834 14.3093 17.4843 14.8109 16.9019 15.2068L16.6343 15.3699C16.1718 15.6243 15.6244 15.7994 15.0425 15.8894C15.2747 15.4805 15.4211 15.0364 15.4644 14.571L15.4654 14.5652C15.565 13.3291 14.9678 12.1882 13.8882 11.3191L13.8853 11.3162L13.6539 11.1414C13.5465 11.0639 13.4361 10.9901 13.3238 10.9187ZM7.49958 2.16675C9.34705 2.16675 10.8607 3.62228 10.9537 5.44702L10.9586 5.62476C10.9504 7.49838 9.48736 9.00922 7.62458 9.07495H7.58356C7.52428 9.07038 7.46507 9.06999 7.40876 9.07397C5.49539 9.00393 4.04157 7.49069 4.04157 5.62476C4.04175 3.71787 5.5927 2.167 7.49958 2.16675ZM13.4683 3.88843C14.7418 3.77808 15.8897 4.66303 16.1256 5.90601L16.1597 6.15991C16.2695 7.50366 15.3215 8.67212 14.0123 8.84155H14.0084C13.9906 8.84155 13.9047 8.83858 13.8023 8.85913C13.3347 8.8768 12.9017 8.77483 12.5289 8.58179C13.225 7.74303 13.6006 6.63989 13.5064 5.46069V5.45679C13.4597 4.9169 13.3126 4.41158 13.0924 3.95288C13.2144 3.92384 13.3406 3.90085 13.4693 3.8894L13.4683 3.88843Z" stroke="#323C47"/>
</svg>
